<svg xmlns="http://www.w3.org/2000/svg" viewBox="0 0 112.64 145.44"><defs><style>.cls-1{fill:#1aabe0;}</style></defs><g id="Layer_2" data-name="Layer 2"><g id="Layer_3" data-name="Layer 3"><path class="cls-1" d="M72.59,21.51a56.47,56.47,0,0,0-11.47-2.19c-1.58-.13-3.18-.21-4.8-.21s-3.22.08-4.8.21a55.71,55.71,0,0,0-7.37,1.13,56.3,56.3,0,0,0,2.46,110.44v-9.78A46.71,46.71,0,0,1,51.52,29v4h0V43l0,0V65a20.11,20.11,0,0,0,5.26,1.5,43.07,43.07,0,0,1,4.34.89V43h0V33h0V29A46.71,46.71,0,0,1,66,121.12v9.77A56.31,56.31,0,0,0,72.59,21.51Z"/><path class="cls-1" d="M0,0V24.65H9.61v-15H51.52v5.81c1.55-.09,3.12-.15,4.7-.15s3.28.07,4.9.17V9.61H103v15h9.61V0Z"/><path class="cls-1" d="M61.12,131.52h0v-24.1h0V85.58A19.42,19.42,0,0,0,55.66,84c-1.56-.24-3-.55-4.14-.84v24.34l-.05,0v24.05h.05v4.31H29.91v9.61H82.73v-9.61H61.12Z"/><path class="cls-1" d="M46.61,34.58a23.48,23.48,0,0,0,2,43.61,24.06,24.06,0,0,0,2.94.81h0c1.18.3,2.62.61,4.21.85l.51.09a19.8,19.8,0,0,1,4.87,1.47v.07c.21.08.42.15.62.24A13.87,13.87,0,0,1,66,104.3v11.5a23.47,23.47,0,0,0-2.16-43.55,20.92,20.92,0,0,0-2.74-.76l-.09,0c-1.19-.3-2.68-.63-4.32-.88l-.46-.08a20,20,0,0,1-4.73-1.39V69c-.33-.12-.64-.24-1-.38a13.85,13.85,0,0,1-4-22.61Z"/><path class="cls-1" d="M66.56,62.54H83.14v-8H79.68A23.53,23.53,0,0,0,66,34.65V46.16a13.87,13.87,0,0,1,4,8.4H66.56Z"/><path class="cls-1" d="M29.2,94.64h3.57a23.5,23.5,0,0,0,13.84,21.22V104.42a13.82,13.82,0,0,1-4.23-9.78h3.4v-8H29.2Z"/></g></g></svg>